<svg width="294" height="394" viewBox="0 0 294 394" fill="none" xmlns="http://www.w3.org/2000/svg">
<g id="dog-35553 1">
<g id="Group">
<g id="body">
<g id="tail">
<path id="Vector" fill-rule="evenodd" clip-rule="evenodd" d="M169.663 90.6287C170.752 67.753 197.97 34.377 202.687 34.002C207.405 33.627 192.526 86.8785 188.534 90.6287C184.542 94.3788 170.026 91.7537 169.663 90.6287Z" fill="#784421" stroke="black" stroke-width="4" stroke-linejoin="round"/>
<path id="Vector_2" fill-rule="evenodd" clip-rule="evenodd" d="M201.024 39.002C200.649 39.0317 200.115 39.2815 199.481 39.7051C198.789 49.5829 182.855 89.4053 179.046 92.3004C176.896 93.9338 172.333 93.7561 168.249 93.0036C168.138 93.8889 168.041 94.7706 168 95.6287C168.363 96.7537 182.879 99.3788 186.871 95.6287C190.863 91.8785 205.741 38.627 201.024 39.002H201.024Z" fill="black" fill-opacity="0.31373"/>
</g>
<path id="Vector_3" d="M259.337 180.855C259.337 205.399 249.902 228.938 233.107 246.293C216.312 263.649 193.534 273.399 169.782 273.399C146.031 273.399 123.252 263.649 106.457 246.293C89.6626 228.938 80.2274 205.399 80.2274 180.855C80.2274 156.311 89.6626 132.772 106.457 115.416C123.252 98.061 146.031 88.3109 169.782 88.3109C193.534 88.3109 216.312 98.061 233.107 115.416C249.902 132.772 259.337 156.311 259.337 180.855Z" fill="#A05A2C" stroke="black" stroke-width="4" stroke-linecap="round" stroke-linejoin="round"/>
<path id="Vector_4" d="M242.651 166.246C242.651 185.221 235.357 203.419 222.373 216.836C209.389 230.253 191.78 237.791 173.418 237.791C155.056 237.791 137.446 230.253 124.462 216.836C111.478 203.419 104.184 185.221 104.184 166.246C104.184 147.272 111.478 129.074 124.462 115.657C137.446 102.24 155.056 94.7018 173.418 94.7018C191.78 94.7018 209.389 102.24 222.373 115.657C235.357 129.074 242.651 147.272 242.651 166.246Z" fill="black" fill-opacity="0.31373"/>
<path id="Vector_5" d="M248.59 136.89C250.913 145.121 252.15 153.832 252.15 162.836C252.15 213.919 212.039 255.374 162.602 255.374C128.616 255.374 99.023 235.774 83.8524 206.927C94.7561 245.328 129.118 273.398 169.794 273.398C219.228 273.398 259.343 231.947 259.343 180.86C259.343 164.952 255.443 149.969 248.593 136.89H248.59Z" fill="black" fill-opacity="0.31373"/>
<path id="Vector_6" d="M230.786 270.806C230.786 286.966 218.094 286.387 202.458 286.387C186.821 286.387 174.13 286.965 174.13 270.806C174.13 254.647 186.821 241.533 202.458 241.533C218.094 241.533 230.786 254.648 230.786 270.806Z" fill="#A05A2C" stroke="black" stroke-width="4" stroke-linecap="round" stroke-linejoin="round"/>
<path id="Vector_7" d="M165.449 270.806C165.449 286.966 152.758 286.387 137.121 286.387C128.426 286.387 120.642 286.566 115.445 283.946C111.295 281.855 108.794 277.98 108.794 270.806C108.794 254.647 121.485 241.533 137.121 241.533C152.758 241.533 165.449 254.648 165.449 270.806L165.449 270.806Z" fill="#A05A2C" stroke="black" stroke-width="4" stroke-linecap="round" stroke-linejoin="round"/>
<g id="Group_2">
<path id="Vector_8" d="M147.544 284.023C150.086 275.524 147.181 265.609 147.181 265.609" stroke="black" stroke-width="4" stroke-linecap="round"/>
<path id="Vector_9" d="M134.458 285.913C131.342 272.221 134.903 261.361 134.903 261.361" stroke="black" stroke-width="4" stroke-linecap="round"/>
<path id="Vector_10" d="M121.212 284.495C114.815 274.108 120.298 265.609 120.298 265.609" stroke="black" stroke-width="4" stroke-linecap="round"/>
</g>
<path id="Vector_11" d="M239.022 156.121C239.022 175.096 231.728 193.294 218.744 206.711C205.76 220.128 188.151 227.666 169.789 227.666C151.427 227.666 133.817 220.128 120.833 206.711C107.849 193.294 100.555 175.096 100.555 156.121C100.555 137.146 107.849 118.949 120.833 105.531C133.817 92.1142 151.427 84.5765 169.789 84.5765C188.151 84.5765 205.76 92.1142 218.744 105.531C231.728 118.949 239.022 137.146 239.022 156.121Z" fill="#A05A2C" stroke="black" stroke-width="4.00009" stroke-linecap="round" stroke-linejoin="round"/>
<path id="Vector_12" d="M232.978 126.817C234.085 131.894 234.679 137.17 234.679 142.591C234.679 182.082 203.649 214.147 165.433 214.147C137.29 214.147 113.065 196.754 102.244 171.818C109.179 203.759 136.795 227.648 169.788 227.648C208.003 227.648 239.034 195.582 239.034 156.091C239.034 145.657 236.869 135.758 232.978 126.817Z" fill="black" fill-opacity="0.31373"/>
<path id="Vector_13" d="M166.799 142.602C166.799 148.049 164.705 153.274 160.978 157.126C157.25 160.977 152.195 163.141 146.923 163.141C141.652 163.141 136.596 160.977 132.869 157.126C129.141 153.274 127.047 148.049 127.047 142.602C127.047 137.155 129.141 131.93 132.869 128.079C136.596 124.227 141.652 122.063 146.923 122.063C152.195 122.063 157.25 124.227 160.978 128.079C164.705 131.93 166.799 137.155 166.799 142.602Z" fill="white" stroke="black" stroke-width="4.00001" stroke-linecap="round" stroke-linejoin="round"/>
<path id="Vector_14" d="M212.945 142.602C212.945 148.049 210.851 153.274 207.124 157.126C203.396 160.977 198.341 163.141 193.069 163.141C187.798 163.141 182.742 160.977 179.015 157.126C175.288 153.274 173.193 148.049 173.193 142.602C173.193 137.155 175.288 131.93 179.015 128.079C182.742 124.227 187.798 122.063 193.069 122.063C198.341 122.063 203.396 124.227 207.124 128.079C210.851 131.93 212.945 137.155 212.945 142.602Z" fill="white" stroke="black" stroke-width="4.00001" stroke-linecap="round" stroke-linejoin="round"/>
<path id="righteyeball" d="M159.033 144.959C159.033 146.65 158.383 148.271 157.227 149.466C156.07 150.662 154.501 151.333 152.865 151.333C151.229 151.333 149.66 150.662 148.503 149.466C147.346 148.271 146.697 146.65 146.697 144.959C146.697 143.269 147.346 141.647 148.503 140.452C149.66 139.256 151.229 138.585 152.865 138.585C154.501 138.585 156.07 139.256 157.227 140.452C158.383 141.647 159.033 143.269 159.033 144.959Z" fill="black"/>
<path id="lefteyeball" d="M192.841 144.959C192.841 146.65 192.191 148.271 191.034 149.466C189.878 150.662 188.309 151.333 186.673 151.333C185.037 151.333 183.468 150.662 182.311 149.466C181.154 148.271 180.504 146.65 180.504 144.959C180.504 143.269 181.154 141.647 182.311 140.452C183.468 139.256 185.037 138.585 186.673 138.585C188.309 138.585 189.878 139.256 191.034 140.452C192.191 141.647 192.841 143.269 192.841 144.959Z" fill="black"/>
<path id="Vector_15" d="M188.189 190.936C188.189 201.269 177.239 209.654 169.995 209.654C162.191 209.654 151.801 201.269 151.801 190.936C151.801 180.604 159.952 177.978 169.995 177.978C180.038 177.978 188.189 180.605 188.189 190.936Z" fill="black"/>
<path id="Vector_16" d="M217.337 245.898C220.764 250.758 222.803 256.749 222.803 263.219C222.803 272.569 218.568 280.889 211.984 286.282C222.93 285.853 230.787 283.512 230.787 270.813C230.787 260.289 225.411 251.057 217.337 245.898H217.337Z" fill="black" fill-opacity="0.31373"/>
<g id="Group_3">
<path id="Vector_17" d="M192.821 284.023C190.279 275.524 193.184 265.609 193.184 265.609" stroke="black" stroke-width="4" stroke-linecap="round"/>
<path id="Vector_18" d="M205.907 285.913C209.023 272.221 205.462 261.361 205.462 261.361" stroke="black" stroke-width="4" stroke-linecap="round"/>
<path id="Vector_19" d="M219.153 284.495C225.55 274.108 220.067 265.609 220.067 265.609" stroke="black" stroke-width="4" stroke-linecap="round"/>
</g>
<path id="Vector_20" d="M151.652 245.898C155.08 250.758 157.118 256.749 157.118 263.219C157.118 272.569 152.883 280.889 146.299 286.282C157.245 285.853 165.102 283.512 165.102 270.813C165.102 260.289 159.726 251.057 151.652 245.898H151.652Z" fill="black" fill-opacity="0.31373"/>
<path id="Vector_21" d="M177.919 256.188C175.514 260.49 174.131 265.493 174.131 270.814C174.131 283.943 182.516 286.011 194.045 286.33C182.592 281.397 176.768 269.674 177.919 256.188H177.919Z" fill="black" fill-opacity="0.31373"/>
<path id="RightEar" fill-rule="evenodd" clip-rule="evenodd" d="M121.038 104.511C81.177 101.606 60.4126 151.239 65.8561 165.865C70.2816 177.755 94.7342 189.748 93.7478 178.842C90.5471 143.453 133.474 105.418 121.039 104.511H121.038Z" fill="#784421" stroke="black" stroke-width="4" stroke-linejoin="round"/>
<g id="LeftEar">
<path id="Vector_22" fill-rule="evenodd" clip-rule="evenodd" d="M218.955 104.511C258.816 101.606 279.58 151.239 274.137 165.865C269.711 177.755 245.259 189.748 246.245 178.842C249.446 143.453 206.519 105.418 218.954 104.511H218.955Z" fill="#784421" stroke="black" stroke-width="4" stroke-linejoin="round"/>
<path id="Vector_23" fill-rule="evenodd" clip-rule="evenodd" d="M222.635 104.387C259.577 112.108 269.565 162.443 261.647 175.287C259.892 178.134 256.744 180.679 253.141 182.717C260.461 180.969 271.335 173.412 274.144 165.865C279.417 151.696 260.088 104.67 222.635 104.386V104.387Z" fill="black" fill-opacity="0.31373"/>
</g>
</g>
<path id="Vector_24" fill-rule="evenodd" clip-rule="evenodd" d="M144.626 317.75L197.44 305.93C197.44 305.93 206.458 320.896 216.906 312.368C227.355 303.841 212.74 295.371 212.74 295.371C212.74 295.371 227.413 287.095 212.99 279.667C198.566 272.24 193.752 291.538 193.752 291.538L142.572 300.879C142.572 300.879 129.259 282.437 119.481 294.612C109.702 306.786 123.117 314.411 123.117 314.411C123.117 314.411 112.356 324.079 126.084 330.564C139.812 337.049 143.905 319.511 144.626 317.75L144.626 317.75Z" fill="#E3DBDB" stroke="black" stroke-width="4" stroke-linejoin="round"/>
<path id="Vector_25" fill-rule="evenodd" clip-rule="evenodd" d="M134.879 293.299C136.314 294.714 137.663 296.162 138.977 297.386L139.489 297.286C138.227 295.981 136.66 294.533 134.879 293.299H134.879ZM213.94 280.178C214.182 280.524 214.401 280.895 214.601 281.265C216.064 285.78 209.96 289.481 207.701 291.992C208.519 293.65 210.526 294.749 212.14 296.179C213.53 295.35 225.981 287.046 213.94 280.177L213.94 280.178ZM116.669 307.13C117.329 308.802 118.343 310.223 119.382 311.345C120.762 309.651 118.241 308.493 116.669 307.13ZM214.027 296.217C214.348 296.602 214.623 297.033 214.838 297.489C219.218 303.271 211.952 310.374 206.218 310.011C200.589 309.884 198.35 304.263 194.807 300.726C177.199 304.665 158.332 308.851 140.725 312.789C138.927 315.828 138.298 319.787 135.899 322.587C132.306 328.466 124.337 327.859 119.531 323.841C119.435 323.788 119.357 323.711 119.266 323.654C119.757 326 121.623 328.454 126.099 330.568C139.827 337.053 143.916 319.509 144.638 317.748L198.719 305.685C198.719 305.685 206.477 320.899 216.926 312.372C225.415 305.444 217.347 298.558 214.028 296.217L214.027 296.217Z" fill="black" fill-opacity="0.31373"/>
</g>
</g>
</svg>
