<svg width="984" height="394" viewBox="0 0 984 394" fill="none" xmlns="http://www.w3.org/2000/svg">
<g id="undraw_font_kwpk 1" clip-path="url(#clip0)">
<path id="dot1" d="M538 391.344C551.807 391.344 563 380.151 563 366.344C563 352.537 551.807 341.344 538 341.344C524.193 341.344 513 352.537 513 366.344C513 380.151 524.193 391.344 538 391.344Z" fill="#3F3D56"/>
<path id="dot2" d="M626 391.344C639.807 391.344 651 380.151 651 366.344C651 352.537 639.807 341.344 626 341.344C612.193 341.344 601 352.537 601 366.344C601 380.151 612.193 391.344 626 391.344Z" fill="#3F3D56"/>
<path id="dot3" d="M714 391.344C727.807 391.344 739 380.151 739 366.344C739 352.537 727.807 341.344 714 341.344C700.193 341.344 689 352.537 689 366.344C689 380.151 700.193 391.344 714 391.344Z" fill="#3F3D56"/>
<path id="CapA" d="M209.974 331.945H88.1743L62.9741 390.395H17.4741L130.174 141.195H166.924L279.975 390.395H234.824L209.974 331.945ZM194.924 296.945L149.074 190.195L103.224 296.945H194.924Z" fill="#361271"/>
<path id="smallA" d="M472.824 213.645V390.395H429.774V362.045C424.475 371.776 416.446 379.745 406.675 384.971C396.64 390.45 385.206 393.192 372.375 393.195C356.975 393.195 343.325 389.462 331.425 381.996C319.524 374.531 310.308 363.914 303.774 350.145C297.239 336.381 293.973 320.397 293.975 302.195C293.975 283.996 297.299 267.838 303.949 253.721C310.6 239.605 319.875 228.639 331.774 220.82C343.675 213.006 357.208 209.098 372.375 209.096C385.204 209.096 396.637 211.837 406.675 217.32C416.445 222.547 424.474 230.516 429.774 240.246V213.645H472.824ZM417.875 343.846C425.805 333.816 429.771 319.7 429.774 301.496C429.774 282.83 425.808 268.48 417.875 258.445C409.939 248.416 398.623 243.399 383.925 243.395C369.454 243.395 358.196 248.587 350.149 258.971C342.1 269.355 338.075 283.764 338.074 302.195C338.074 320.395 342.099 334.395 350.149 344.195C358.199 353.996 369.574 358.896 384.274 358.895C398.739 358.895 409.939 353.879 417.875 343.846Z" fill="#361271"/>
<g id="body">
<path id="Vector" d="M825.705 61.9702H887.347V31.3208C887.347 31.0459 887.343 30.7769 887.338 30.4922C887.237 22.3815 883.949 14.6363 878.184 8.93052C872.419 3.22475 864.64 0.0167759 856.528 -2.50253e-06C852.468 -0.00551691 848.448 0.803103 844.705 2.37805C840.963 3.953 837.574 6.26231 834.739 9.16945C833.64 10.284 832.627 11.4803 831.709 12.7481C827.785 18.1436 825.682 24.6492 825.705 31.3208V61.9702Z" fill="#2F2E41"/>
<path id="Vector_2" d="M884.835 28.9488C884.363 56.6131 843.213 56.6087 842.744 28.9479C843.217 1.28452 884.367 1.28885 884.835 28.9488Z" fill="#FFB8B8"/>
<path id="Vector_3" d="M869.803 43.38C859.174 59.3175 859.459 64.838 872.208 79.458L852.966 65.6281C852.966 65.6281 839.137 65.6281 842.143 59.0138C845.15 52.3995 851.162 38.5696 851.162 38.5696L869.803 43.38Z" fill="#FFB8B8"/>
<g id="top">
<g id="leftArm">
<path id="Vector_4" d="M899.615 184.676C902.001 187.189 905.637 218.09 916.4 213.394C925.094 203.576 910.481 184.073 908.992 179.933L899.615 184.676Z" fill="#FFB8B8"/>
<path id="Vector_5" d="M887.143 144.802L913.6 180.279L900.973 189.9L882.332 163.442L887.143 144.802Z" fill="#361271"/>
</g>
<path id="Vector_6" d="M860.084 67.8354C860.084 67.8354 846.255 57.6133 839.64 64.2276C833.066 76.8174 839.68 131.977 842.043 136.384C845.052 141.194 845.653 136.985 845.052 142.397C844.451 147.808 842.045 152.017 842.647 152.619C843.248 153.22 889.548 158.03 889.548 158.03C889.548 158.03 885.94 141.194 887.143 134.58C888.346 127.965 885.94 121.351 885.94 118.946C885.94 116.541 889.548 106.319 885.94 98.5017C882.333 90.6848 868.816 74.607 868.816 74.607L867.901 75.6523L860.084 67.8354Z" fill="#361271"/>
<g id="rightArm">
<path id="Vector_7" d="M824.104 196.11C825.432 199.852 814.857 233.9 828.312 233.993C841.985 227.76 835.762 200.537 836.13 195.509L824.104 196.11Z" fill="#FFB8B8"/>
<path id="Vector_8" d="M842.045 64.8289C842.045 64.8289 826.412 65.4302 826.412 84.0705C826.412 102.711 821 135.782 821 135.782V200.121H841.444L838.438 139.39L851.065 99.7043C851.065 99.7043 867.3 74.4497 842.045 64.8289Z" fill="#361271"/>
</g>
</g>
<g id="rightLeg">
<path id="Vector_9" d="M844.548 149.209C844.548 149.209 826.509 183.483 840.94 203.326C855.372 223.169 885.437 266.462 885.437 266.462C889.8 303.614 898.114 339.013 921 369L936.148 364.847L914.299 258.044C914.299 258.044 902.273 195.509 888.443 179.875L886 150L844.548 149.209Z" fill="#2F2E41"/>
<path id="Vector_10" d="M962.664 383.358C962.875 381.869 962.656 380.352 962.032 378.984C961.408 377.617 960.405 376.457 959.143 375.641L936.559 364.558L919.533 366.708L915.512 381.123C915.342 382.15 915.383 383.201 915.632 384.212C915.881 385.223 916.333 386.173 916.961 387.003C917.589 387.833 918.379 388.527 919.284 389.043C920.188 389.558 921.189 389.884 922.223 390L953.994 390.069C956.028 390.298 958.072 389.725 959.69 388.472C961.309 387.219 962.376 385.384 962.664 383.358Z" fill="#2F2E41"/>
</g>
<g id="leftLeg">
<path id="Vector_11" d="M844.92 200L832.894 259.529C822.636 265.97 801.311 330.067 792.973 352.282L809.241 358.331C827.176 330.005 868.503 255.635 877.991 224.052L844.92 200Z" fill="#2F2E41"/>
<path id="Vector_12" d="M815.967 388.527C817.169 387.624 818.087 386.396 818.613 384.988C819.139 383.579 819.25 382.05 818.934 380.581L810.802 356.775L797.243 346.256L784.206 353.606C783.359 354.212 782.645 354.984 782.106 355.874C781.568 356.765 781.216 357.757 781.073 358.788C780.93 359.819 780.998 360.869 781.273 361.873C781.549 362.877 782.025 363.814 782.675 364.628L805.091 387.143C806.368 388.743 808.218 389.782 810.248 390.041C812.279 390.299 814.33 389.756 815.967 388.527Z" fill="#2F2E41"/>
</g>
<path id="Vector_13" d="M839.787 12.2198L845.403 30.0879L893.959 29.2249C893.793 22.9733 891.679 16.9296 887.911 11.9382C884.143 6.94668 878.911 3.25669 872.944 1.38366C866.977 -0.489371 860.574 -0.451913 854.63 1.49081C848.685 3.43353 843.496 7.18449 839.787 12.2197L839.787 12.2198Z" fill="#2F2E41"/>
</g>
</g>
<defs>
<clipPath id="clip0">
<rect width="984" height="393.195" fill="white"/>
</clipPath>
</defs>
</svg>
